HIERARCHY
ROOT Hips
{
	OFFSET 0.000000 88.474243 0.000000
	CHANNELS 6 Xposition Yposition Zposition Zrotation Yrotation Xrotation 
	JOINT Hips_Spine
	{
		OFFSET 0.000000 0.000000 0.000000
		CHANNELS 3 Zrotation Yrotation Xrotation
		JOINT Spine
		{
			OFFSET 0.005100 8.711998 -0.691000
			CHANNELS 3 Zrotation Yrotation Xrotation
			JOINT Spine1
			{
				OFFSET -0.009200 8.660301 -1.275000
				CHANNELS 3 Zrotation Yrotation Xrotation
				JOINT Spine2
				{
					OFFSET 0.006300 9.852501 -1.857000
					CHANNELS 3 Zrotation Yrotation Xrotation
					JOINT Spine2_Neck
					{
						OFFSET 0.000000 0.000000 0.000000
						CHANNELS 3 Zrotation Yrotation Xrotation
						JOINT Neck
						{
							OFFSET 0.016300 11.420799 -0.263300
							CHANNELS 3 Zrotation Yrotation Xrotation
							End Site #name: Head
							{
								OFFSET -0.019200 9.262405 2.362500
							}
						}
					}
					JOINT Spine2_LeftShoulder
					{
						OFFSET 0.000000 0.000000 0.000000
						CHANNELS 3 Zrotation Yrotation Xrotation
						JOINT LeftShoulder
						{
							OFFSET 5.616900 6.732201 -0.345700
							CHANNELS 3 Zrotation Yrotation Xrotation
							JOINT LeftArm
							{
								OFFSET 10.664888 -0.183372 -2.440700
								CHANNELS 3 Zrotation Yrotation Xrotation
								JOINT LeftForeArm
								{
									OFFSET 27.459126 0.000000 0.000000
									CHANNELS 3 Zrotation Yrotation Xrotation
									End Site #name: LeftHand
									{
										OFFSET 21.306858 0.000000 0.000000
									}
								}
							}
						}
					}
					JOINT Spine2_RightShoulder
					{
						OFFSET 0.000000 0.000000 0.000000
						CHANNELS 3 Zrotation Yrotation Xrotation
						JOINT RightShoulder
						{
							OFFSET -5.580300 6.737503 -0.344400
							CHANNELS 3 Zrotation Yrotation Xrotation
							JOINT RightArm
							{
								OFFSET -10.679335 -0.188484 -2.383900
								CHANNELS 3 Zrotation Yrotation Xrotation
								JOINT RightForeArm
								{
									OFFSET -27.503529 0.000000 0.000000
									CHANNELS 3 Zrotation Yrotation Xrotation
									End Site #name: RightHand
									{
										OFFSET -21.306808 0.000000 0.000000
									}
								}
							}
						}
					}
				}
			}
		}
	}
	JOINT Hips_LeftUpLeg
	{
		OFFSET 0.000000 0.000000 0.000000
		CHANNELS 3 Zrotation Yrotation Xrotation
		JOINT LeftUpLeg
		{
			OFFSET 6.857700 -6.739601 0.312100
			CHANNELS 3 Zrotation Yrotation Xrotation
			JOINT LeftLeg
			{
				OFFSET -0.367590 -34.731552 -4.572400
				CHANNELS 3 Zrotation Yrotation Xrotation
				End Site #name: LeftFoot
				{
					OFFSET 0.367590 -34.656704 -6.067400
				}
			}
		}
	}
	JOINT Hips_RightUpLeg
	{
		OFFSET 0.000000 0.000000 0.000000
		CHANNELS 3 Zrotation Yrotation Xrotation
		JOINT RightUpLeg
		{
			OFFSET -6.876100 -6.733299 0.301000
			CHANNELS 3 Zrotation Yrotation Xrotation
			JOINT RightLeg
			{
				OFFSET 0.347353 -34.795158 -4.515900
				CHANNELS 3 Zrotation Yrotation Xrotation
				End Site #name: RightFoot
				{
					OFFSET -0.347353 -34.589367 -6.070300
				}
			}
		}
	}
}
MOTION
Frames: 10
Frame Time: 0.041667
0.035114 -0.011322 -0.058873 -176.892569 65.209992 -173.682615 -0.000000 -0.000000 0.000000 -3.823539 3.473442 -0.802927 0.932024 -0.485742 0.479837 0.000000 0.000000 0.000000 0.383579 -1.076740 -2.897376 -1.655285 -7.070574 -0.892474 0.527646 -0.247556 -1.120848 -4.017568 -6.630227 1.542013 -77.690364 -8.254497 9.436192 0.607156 -17.160122 2.964560 0.239118 -0.669881 -1.591488 18.333776 13.414778 4.260831 51.395754 12.738542 -9.607747 -6.474656 71.700278 -0.577627 0.000000 -0.000000 0.000000 -7.538141 19.707123 -14.560285 -6.962984 -37.141333 1.358931 -0.000000 -0.000000 -0.000000 -9.861094 -28.962910 -6.666410 -14.436360 -10.743850 13.792626 
-0.186442 -0.179593 -0.101501 179.554654 68.985018 -175.829337 -0.000000 -0.000000 0.000000 -5.651312 2.321220 1.479706 1.075585 -0.748429 -0.454252 0.000000 0.000000 0.000000 0.971828 -0.744061 -2.754500 -0.361900 -13.367309 -0.198732 0.604783 -0.492988 -1.828761 -3.104252 -7.732647 1.759602 -83.305581 -15.458268 5.068339 -1.179726 -13.649740 1.566194 0.876766 -1.054885 -0.335735 23.959486 16.447908 4.924323 50.797539 11.368744 -9.594143 -5.279945 56.762202 0.113627 -0.000000 -0.000000 -0.000000 -6.053219 20.760319 -12.489763 -3.558409 -34.503866 -4.590391 -0.000000 -0.000000 -0.000000 -10.160368 -33.669072 -5.359203 -12.476932 -7.404225 12.823462 
-0.168546 -0.228487 -0.119432 177.820024 57.835942 -177.446572 -0.000000 -0.000000 0.000000 -6.237247 -0.961891 1.809808 1.329714 -0.877132 -1.035972 0.000000 0.000000 0.000000 1.410538 -0.961921 -2.889627 -1.148102 -21.534557 -0.303805 0.651186 -0.518418 -2.291845 -1.944487 -6.634011 1.097353 -84.770889 -16.777106 -0.142362 -0.927497 -8.332785 1.884025 1.207976 -1.282657 -1.639737 25.494787 18.554183 5.846795 51.373815 11.407497 -4.737928 -4.052056 53.841209 2.286607 -0.000000 0.000000 -0.000000 -4.559275 21.632363 -10.765330 -2.557856 -32.813072 -6.750701 -0.000000 -0.000000 -0.000000 -10.794900 -38.108200 -3.033325 -12.698162 -7.929514 13.169000 
-0.040976 -0.259882 -0.146920 178.380077 45.667518 -177.712263 -0.000000 -0.000000 0.000000 -5.913336 -2.070174 2.662723 0.968967 -1.214211 -1.411080 0.000000 0.000000 0.000000 1.336814 -1.331216 -2.750405 -1.865536 -25.521958 -0.505762 0.510081 -0.770856 -2.615718 -1.507476 -5.775138 0.758959 -85.689305 -17.990193 -1.860845 -0.671584 -5.508183 1.656135 1.099597 -1.712989 -1.649348 24.400310 18.201986 5.890507 51.611834 12.786465 -1.980333 -2.850063 53.889116 3.295933 -0.000000 0.000000 -0.000000 -3.688752 22.856984 -9.318482 -1.865015 -33.331786 -7.780576 -0.000000 -0.000000 -0.000000 -11.803615 -44.498138 -1.529219 -13.029899 -7.403562 13.798985 
0.100972 -0.278768 -0.215298 178.033348 34.955289 -178.325520 -0.000000 -0.000000 0.000000 -5.208525 -2.483815 2.932642 0.512058 -1.503942 -1.594622 0.000000 0.000000 0.000000 1.104459 -1.578876 -2.282777 -1.686116 -26.846433 -1.063815 0.268746 -1.030008 -2.615096 -1.518646 -4.999111 0.590005 -86.208904 -18.795410 -1.570173 -0.510977 -4.336913 1.634631 0.741852 -2.017501 -1.225829 22.331441 16.976917 5.531818 52.011040 13.995025 1.083926 -2.420020 53.691125 2.806990 -0.000000 0.000000 -0.000000 -3.458068 23.349483 -8.617997 -1.506637 -33.469728 -8.295638 -0.000000 -0.000000 -0.000000 -12.540217 -49.908436 -0.584346 -13.732809 -6.636362 14.526792 
0.258084 -0.278234 -0.312127 177.325121 26.030720 -178.812434 -0.000000 -0.000000 0.000000 -4.468799 -2.377693 3.031835 0.178072 -1.649875 -1.341078 0.000000 0.000000 0.000000 0.874487 -1.662539 -1.532771 -1.166024 -26.403300 -1.947074 0.073980 -1.151298 -2.291084 -1.677843 -4.256578 0.512506 -86.542089 -18.969734 -0.964747 0.109375 -4.184826 2.032399 0.422927 -2.121233 -0.763479 20.543107 15.869158 5.180171 52.536866 13.765293 3.146868 -2.390973 53.643000 2.227362 -0.000000 0.000000 -0.000000 -3.548455 23.388615 -8.434266 -1.369770 -33.359078 -8.486267 -0.000000 -0.000000 -0.000000 -12.751155 -53.756236 -0.331463 -14.383228 -6.262877 15.113330 
0.419506 -0.257544 -0.429924 176.584579 19.882446 -179.081620 -0.000000 -0.000000 0.000000 -4.025257 -1.823568 3.237491 -0.092054 -1.616018 -0.707529 0.000000 0.000000 0.000000 0.678465 -1.652958 -0.635671 -0.802212 -25.134177 -2.830245 -0.084253 -1.172208 -1.746267 -1.895986 -3.560094 0.464465 -86.538196 -18.996848 -0.153749 0.777668 -4.732840 2.593821 0.193479 -2.096599 -0.535123 19.288202 15.157875 4.798780 53.106988 12.237108 4.831419 -2.205315 52.636607 2.235234 -0.000000 0.000000 -0.000000 -3.704708 23.100937 -8.521981 -1.348720 -33.195069 -8.634167 -0.000000 -0.000000 -0.000000 -12.785372 -56.178866 -0.364604 -14.949749 -6.533820 15.359693 
0.578800 -0.224549 -0.557194 175.992175 15.676416 -179.160645 -0.000000 -0.000000 0.000000 -3.811287 -0.586487 3.492917 -0.259770 -1.524999 0.106143 0.000000 0.000000 0.000000 0.516191 -1.611530 0.239148 -0.603354 -23.856130 -3.465195 -0.193509 -1.125387 -1.254521 -2.010805 -3.120132 0.460356 -86.256504 -19.170414 0.657719 1.231135 -5.588416 2.821138 0.039950 -2.065523 -0.228548 18.257731 14.803671 4.441689 53.791866 10.411076 6.611685 -1.981070 50.960120 2.442743 -0.000000 0.000000 -0.000000 -3.811254 22.759306 -8.717674 -1.362114 -33.020212 -8.732248 -0.000000 -0.000000 -0.000000 -12.682713 -57.344041 -0.663641 -15.378840 -7.100086 15.371646 
0.733969 -0.184894 -0.682068 175.545584 11.938192 -179.179568 -0.000000 -0.000000 0.000000 -3.921361 0.435587 3.749091 -0.285831 -1.422835 0.780971 0.000000 0.000000 0.000000 0.379804 -1.558543 0.917015 -0.704059 -23.024066 -3.758337 -0.273170 -1.081845 -0.844546 -1.950170 -2.952439 0.506700 -85.769630 -19.580642 1.263418 1.539560 -6.862821 2.706640 -0.078370 -2.039725 0.038327 17.504701 14.712008 4.174776 54.310297 9.003022 7.967780 -1.720484 47.944098 2.734485 0.000000 0.000000 -0.000000 -3.843790 22.383084 -8.732283 -1.386684 -32.959296 -8.846641 -0.000000 -0.000000 -0.000000 -12.596461 -57.737069 -0.918560 -15.429694 -7.736015 15.026565 
0.881890 -0.141414 -0.809588 175.319873 8.221535 -179.198036 -0.000000 -0.000000 0.000000 -4.123403 1.099073 3.895165 -0.298123 -1.363838 1.195694 0.000000 0.000000 0.000000 0.283682 -1.521769 1.359935 -0.472416 -22.861356 -3.841330 -0.330251 -1.070575 -0.588269 -1.726165 -3.014987 0.588809 -85.357105 -20.176283 1.765869 1.877479 -8.477972 2.349355 -0.182437 -2.024410 0.195152 16.942849 14.677434 3.961650 54.640651 8.480027 8.211369 -1.492186 45.096147 3.047447 0.000000 0.000000 -0.000000 -3.797568 22.051875 -8.462150 -1.416336 -33.059195 -8.991056 -0.000000 -0.000000 -0.000000 -12.642451 -57.594709 -0.995349 -15.053084 -8.339107 14.497089 
